<svg xmlns="http://www.w3.org/2000/svg" width="210.752" height="69" viewBox="0 0 210.752 69">
  <defs>
    <linearGradient id="linearGradient-8" x1="33.5" x2="33.5" y1="0" y2="69" gradientUnits="userSpaceOnUse">
      <stop offset="0" stop-color="rgb(161,79,196)"/>
      <stop offset="1" stop-color="rgb(57,106,252)"/>
    </linearGradient>
  </defs>
  <g>
    <g>
      <path fill="rgb(255,255,255)" fill-rule="evenodd" d="M106.8847351 40.3121643c-1.35708617 4.97543336-5.59249877 8.1953125-10.85557555 8.1953125-6.57899476 0-11.55441285-5.05917358-11.55441285-11.790802 0-6.73162841 4.9754181-11.74954223 11.55441285-11.74954223 5.30426025 0 9.4573059 3.17800903 10.81440734 8.11157226h-3.49479675c-1.2747345-2.92678833-4.03010559-4.68295288-7.3196106-4.68295288-4.5642395 0-7.9772644 3.63796997-7.9772644 8.32092285 0 4.724823 3.45420838 8.36218262 7.9772644 8.36218262 3.24832154 0 5.96250916-1.75616455 7.3196106-4.76669311h3.53596497z"/>
      <path fill="rgb(255,255,255)" fill-rule="evenodd" d="M130.69281006 25.42712402l-.45236206 3.4704895c-2.05593872-2.46679687-5.13954163-3.93048095-8.75845337-3.93048095-6.57899475 0-11.51324463 5.01791382-11.51324463 11.79141235 0 6.6897583 4.93424988 11.74893189 11.51324463 11.74893189 3.61891174 0 6.66134643-1.46368409 8.71728516-3.88858033l.36999511 3.38671875h2.87831116v-22.5784912h-2.754776zm-8.96374512 19.6517334c-4.68777466 0-8.1831665-3.59609985-8.1831665-8.36218262 0-4.724823 3.49539184-8.32092285 8.1831665-8.32092285 4.72834778 0 8.14137268 3.55422974 8.14137268 8.32092285 0 4.80795289-3.4130249 8.36218262-8.14137268 8.36218262z"/>
      <path fill="rgb(255,255,255)" fill-rule="evenodd" d="M143.52189636 28.897583c1.60357666-2.341156 3.9065857-3.55361938 7.11372376-3.55361938h1.97357177v3.34487915h-2.26123046c-4.07069397 0-6.37368775 2.67553711-6.37368775 7.065979v12.25079346h-3.49479675V25.42709351h2.50830078l.53411865 3.4704895z"/>
      <path fill="rgb(255,255,255)" fill-rule="evenodd" d="M160.87461853 40.01965332c0 3.05239868 1.64474487 4.724823 4.68717957 4.724823h2.42652893v3.26113891h-2.8782959c-4.7701416 0-7.73080445-2.96862793-7.73080445-7.86035156V28.64697266h-3.90597534v-.62747193l6.86663819-7.35848999h.534729v4.76608277h6.99017334v3.21987915h-6.99017334v11.37268066z"/>
      <path fill="rgb(255,255,255)" fill-rule="evenodd" d="M193.40005493 36.8416748c0-6.60598754-4.44128418-11.87454223-11.1843872-11.87454223-6.4560547 0-11.30795289 5.05917358-11.30795289 11.74954223 0 6.73162842 4.8518982 11.790802 11.30795288 11.790802 4.81069947 0 8.71728516-2.71801757 10.60849-7.35910034h-3.7006836c-1.35708618 2.42492676-3.82421875 3.88861084-6.9078064 3.88861084-4.19424438 0-7.27844238-2.75927734-7.81317138-6.940979h18.91522217c.0411682-.41812134.08233642-.83621216.08233642-1.2543335zm-11.1843872-8.52908325c3.94714355 0 6.94900512 2.508667 7.68899536 6.52227783h-15.4197998c.69885253-3.93048095 3.70068359-6.52227783 7.73080443-6.52227783z"/>
      <path fill="rgb(255,255,255)" fill-rule="evenodd" d="M201.66470337 28.897583c1.60357666-2.341156 3.9065857-3.55361938 7.1137085-3.55361938h1.97360229v3.34487915h-2.26123047c-4.07070923 0-6.37371826 2.67553711-6.37371826 7.065979v12.25079346h-3.4947815V25.42709351h2.50830079l.53411865 3.4704895z"/>
    </g>
    <path fill="url(#linearGradient-8)" fill-rule="evenodd" d="M22.66539828 34.5c0 19 38.60141369 3.45728725 43.44201336 12C71.77376121 56.5 48.63649865 69 33.99809742 69 15.23403665 69 0 53.54106835 0 34.5S15.23403665 0 33.99809742 0C49.19993935 0 71.7737612 14 66.10741164 24c-4.60951427 8.13489217-43.44201336-8.5-43.44201336 10.5z"/>
  </g>
</svg>